Coordinates
version=1
nRows=19
nColumns=36
inDegrees=yes

Units are S.I. units (second, meters, Newtons, ...)
If the header above contains a line with 'inDegrees', this indicates whether rotational values are in degrees (yes) or radians (no).

endheader
time	pelvis_tilt	pelvis_list	pelvis_rotation	pelvis_tx	pelvis_ty	pelvis_tz	hip_flexion_r	hip_adduction_r	hip_rotation_r	knee_angle_r	knee_angle_r_beta	ankle_angle_r	subtalar_angle_r	mtp_angle_r	hip_flexion_l	hip_adduction_l	hip_rotation_l	knee_angle_l	knee_angle_l_beta	ankle_angle_l	subtalar_angle_l	mtp_angle_l	lumbar_extension	lumbar_bending	lumbar_rotation	arm_flex_r	arm_add_r	arm_rot_r	elbow_flex_r	pro_sup_r	arm_flex_l	arm_add_l	arm_rot_l	elbow_flex_l	pro_sup_l
      1.48333330	    -12.40624574	     -1.61007775	      3.18338719	     -0.66828881	      1.23239074	     -0.05430261	     14.73529656	     -0.29287945	     -4.43826982	     47.75272383	      0.83344226	     11.46636573	    -26.18996398	     -7.49999987	     11.77268253	     -6.15862051	      2.01217381	     42.15271944	      0.73570374	     24.50510399	      2.97838387	     -7.49999987	     -5.19253259	      0.98112039	     -3.74816926	     18.77570994	     -5.10455937	     18.74547794	     98.36668135	     75.15733513	     16.93125751	     -1.10224894	     19.47479699	     85.69308938	     59.89667484
      1.48750000	    -12.27297002	     -1.89950377	      2.80571753	     -0.66748859	      1.23274430	     -0.05425534	     14.41267955	      0.30032945	     -4.25412893	     47.78244095	      0.83396092	      9.78473436	    -26.37334526	     -7.49999987	     11.53808818	     -6.62383759	      1.82320481	     42.71077655	      0.74544368	     23.22419085	      3.04153874	     -7.49999987	     -4.55568122	      1.03673708	     -3.71075716	     18.50262050	     -4.98981154	     18.97471018	     99.28170262	     74.80950667	     16.76699299	     -1.66036086	     20.39873252	     87.50105960	     60.07258889
      1.49166670	    -12.09646584	     -1.85799027	      2.49823816	     -0.65572543	      1.24072648	     -0.05552445	     13.61260545	      0.13886377	     -4.27547647	     47.36977475	      0.82675854	      7.74048653	    -26.71308373	     -7.49999987	     10.88920787	     -6.58172624	      1.30092991	     42.47254405	      0.74128574	     21.37765323	      2.99947276	     -7.49999987	     -4.09566775	      0.86844813	     -4.24521114	     18.52730167	     -5.10839289	     19.19055076	     99.40179459	     75.04610598	     17.53980130	     -2.71677097	     21.76257829	     87.76852503	     60.19912083
      1.49583330	    -11.87078049	     -1.87842835	      2.51204874	     -0.64921764	      1.24815223	     -0.06058297	     12.81510759	     -0.40081547	     -5.01775241	     46.65415742	      0.81426866	      5.58353390	    -26.74417442	     -7.49999987	     10.25080169	     -6.12916410	      1.44440889	     42.08695577	      0.73455595	     19.52575595	      2.57385294	     -7.49999987	     -3.49150277	      0.78969771	     -4.93479968	     18.67827898	     -5.62150065	     19.93583389	    100.44388348	     75.34814474	     18.48678680	     -3.50883644	     23.47534375	     89.19701261	     60.36729582
      1.50000000	    -11.49541929	     -2.06707483	      2.74530845	     -0.63794208	      1.24926582	     -0.06204319	     11.70718837	     -0.65864319	     -5.74364320	     46.11031145	      0.80477675	      2.86053145	    -26.67003923	     -7.49999987	      9.40055120	     -5.84887962	      2.19529887	     41.73668462	      0.72844257	     17.44556261	      2.05995230	     -7.49999987	     -2.65706032	      1.00417952	     -5.79337332	     17.94832431	     -5.67790585	     20.55809916	    101.98554811	     75.69738851	     18.64986620	     -4.07030514	     24.49535223	     90.49278158	     60.46385859
      1.50416670	    -11.06621214	     -2.20692296	      2.55525858	     -0.62530446	      1.26346069	     -0.07125033	     10.29781956	     -1.13609072	     -6.36479062	     45.38163370	      0.79205893	     -1.56541270	    -26.03432583	     -7.49999987	      7.84443874	     -5.27293559	      2.66236110	     40.15628826	      0.70085945	     14.69195188	      0.88387210	     -7.49999987	     -2.18731417	      1.33113312	     -6.04070207	     17.76765934	     -6.87375559	     21.17333326	    103.30046628	     76.05233029	     17.59716339	     -3.98587881	     25.09391982	     92.18637521	     60.59601074
      1.50833330	    -10.47182530	     -2.62161471	      2.71460400	     -0.61984991	      1.28058877	     -0.07684857	      9.08680838	     -1.56174159	     -7.65659342	     44.32512544	      0.77361938	     -6.32051231	    -24.13308518	     -7.49999987	      6.08012495	     -4.80745691	      3.96280419	     38.13192976	      0.66552772	     11.02463931	     -1.41400117	     -7.49999987	     -1.99797535	      2.24225634	     -6.88912680	     18.09732800	     -8.11017190	     22.31882540	    103.79548110	     77.23491717	     16.66036556	     -3.71960294	     25.55222967	     93.79243152	     60.78693949
      1.51250000	    -10.13123224	     -2.98273965	      2.13344695	     -0.61389209	      1.28239697	     -0.07250135	      8.89071870	     -1.29774871	     -7.64891180	     43.83007012	      0.76497904	    -10.16211861	    -23.79023448	     -7.49999987	      5.04295278	     -4.86156183	      4.14898198	     37.17520620	      0.64882975	      8.22147421	     -2.72093796	     -7.49999987	     -1.74533431	      2.82669451	     -6.85969583	     18.52534719	     -9.22212340	     23.48218583	    104.59713450	     77.72416369	     15.66665012	     -3.64372256	     25.47221583	     95.46270231	     60.87812416
      1.51666670	     -9.97444901	     -3.32284484	      1.58414797	     -0.60808238	      1.28817986	     -0.06834386	      9.25718133	     -1.09260913	     -7.62184161	     43.63752223	      0.76161844	    -12.89013950	    -23.23458998	     -7.49999987	      4.16285367	     -5.26211476	      4.13409175	     36.09634420	      0.63000005	      6.69641152	     -3.38948762	     -7.49999987	     -1.74541706	      3.27909276	     -7.93896991	     19.53272360	     -9.43259533	     25.64787443	    104.84975653	     79.35256972	     13.63475188	     -3.97154494	     23.65144209	     98.54490281	     61.17197181
      1.52083330	     -9.69286832	     -3.67615401	      1.16430203	     -0.59577985	      1.28745543	     -0.05936853	      9.47008638	     -0.48502369	     -7.50857502	     44.61185086	      0.77862368	    -14.73263395	    -23.53058861	     -7.49999987	      3.11948965	     -6.12662679	      3.68287329	     35.60448238	      0.62141545	      4.79553492	     -4.12754804	     -7.49999987	     -1.04745473	      2.93876757	     -8.03373583	     18.83057095	     -9.35744277	     26.28521100	    105.80158844	     79.65849915	     12.49361025	     -4.22134698	     23.44604378	     99.58259545	     61.19351426
      1.52500000	     -9.54335136	     -3.88166755	      1.39969071	     -0.58432156	      1.29407602	     -0.06079560	      9.19279778	      0.08489060	     -7.01310193	     44.37358173	      0.77446510	    -14.64047159	    -22.95707810	     -7.49999987	      2.23877821	     -6.73456736	      3.45332272	     34.84889445	      0.60822795	      4.21437266	     -4.23794009	     -7.49999987	     -0.28755206	      2.76825081	     -8.25508319	     17.14226266	     -9.38661145	     26.45819853	    105.87704108	     79.71049638	     11.37607080	     -4.52970820	     23.43603271	     99.79327591	     61.18942398
      1.52916670	     -9.46381252	     -3.99483244	      1.84478136	     -0.57780917	      1.29730082	     -0.05725056	      9.04364137	      0.66183423	     -6.50637891	     44.44743883	      0.77575415	    -14.91146861	    -22.57149973	     -7.49999987	      1.48201105	     -7.21264658	      3.13987476	     33.92966516	      0.59218437	      2.08933760	     -4.30652221	     -7.49999987	     -0.04619614	      2.46845269	     -8.14136190	     15.85723337	     -9.41228481	     25.69565297	    107.06957421	     79.93840208	     10.27537510	     -4.53598500	     23.24026824	    101.29257335	     61.19313955
      1.53333330	     -9.40872067	     -3.87357771	      2.52803482	     -0.57794716	      1.30410316	     -0.05829128	      9.25793641	      0.80661822	     -6.38957466	     44.20839500	      0.77158205	    -13.29756775	    -23.30955974	     -7.49999987	      1.13286186	     -7.29348971	      3.18926533	     33.14019876	      0.57840558	      0.95868803	     -4.57710069	     -7.49999987	     -0.14784868	      2.09754288	     -8.07053894	     15.05471337	     -9.35511271	     25.13925364	    109.03065177	     80.21296243	     10.06375487	     -4.63804244	     23.52298702	    102.67880313	     61.21300701
      1.53750000	     -9.08391005	     -3.61857343	      2.90289717	     -0.57180234	      1.31707114	     -0.05401248	      8.51179386	      1.19262462	     -5.90859534	     42.77200214	      0.74651227	    -12.07630329	    -22.96948532	     -7.49999987	      0.88158746	     -7.39401179	      2.71958521	     32.49642064	      0.56716954	     -1.73189365	     -4.42433159	     -7.49999987	     -0.53562935	      1.65976165	     -7.91527307	     14.47847688	     -9.05371249	     24.83413364	    110.15303853	     80.12262211	     10.51396956	     -4.71904845	     23.12274791	    102.84273743	     61.12923703
      1.54166670	     -9.22812845	     -3.38051144	      3.11935247	     -0.57171007	      1.31965468	     -0.05430877	      8.87808097	      1.35963976	     -5.20989335	     42.30635857	      0.73838525	    -10.12840387	    -22.38560517	     -7.49999987	      1.41017253	     -7.54085458	      1.56334725	     32.39444482	      0.56538972	     -4.44913589	     -3.50089141	     -7.49999987	     -0.84514355	      1.46894034	     -8.05896985	     14.22221266	     -8.76825035	     24.93710617	    111.71072001	     80.57503426	     10.90274543	     -4.68225671	     22.58284352	    103.94680959	     61.04837737
      1.54583330	     -8.86942346	     -2.82472486	      3.23506667	     -0.56589140	      1.32909190	     -0.05988378	      8.25673316	      0.70765286	     -5.08222639	     41.29930121	      0.72080878	     -8.48983538	    -22.34003249	     -7.49999987	      1.60349556	     -7.16734015	      0.12642654	     32.76587997	      0.57187249	     -7.65248903	     -3.99390445	     -7.49999987	     -1.37760211	      1.03167047	     -8.57562729	     13.92089394	     -8.50083039	     24.78306100	    111.86370277	     80.90817942	     11.16812133	     -4.59013962	     21.49898971	    103.77518271	     60.88941916
      1.55000000	     -8.84973663	     -2.42269501	      3.45478329	     -0.56000487	      1.33293583	     -0.05640555	      8.31422310	      0.26183592	     -5.25727745	     41.60166294	      0.72608599	     -6.93783072	    -21.25884304	     -7.49999987	      2.53041093	     -7.08536452	     -1.07670535	     34.01990132	      0.59375929	    -10.51004068	     -4.93838797	     -7.49999987	     -1.93847054	      0.73038271	     -9.13852368	     13.61671984	     -8.37037123	     25.04423479	    112.11073482	     81.54042412	     11.27363714	     -4.58371727	     20.71539718	    104.40866595	     60.72464847
      1.55416670	     -8.58597829	     -2.02550036	      3.50782824	     -0.55872908	      1.34005622	     -0.05620776	      8.68234039	     -0.44507907	     -5.38522444	     43.08474058	      0.75197058	     -5.90703014	    -21.19495833	     -7.49999987	      3.41052663	     -7.16851556	     -1.91343655	     35.52808166	      0.62008200	    -12.98304785	     -5.05148212	     -7.49999987	     -2.67855420	      0.25041131	     -9.26680534	     13.73958398	     -8.28353201	     25.42033716	    112.34552513	     82.25660846	     11.78142212	     -5.14417126	     20.45811732	    105.34988311	     60.63020034
      1.55833330	     -8.57682662	     -1.75263768	      3.37114442	     -0.55247216	      1.33962777	     -0.06043767	      9.16162495	     -1.10753280	     -5.43127075	     44.25359713	      0.77237098	     -3.21350451	    -19.31264762	     -7.49999987	      4.44683807	     -6.93933812	     -1.79924120	     37.35797555	      0.65201968	    -14.63764473	     -5.30650841	     -7.49999987	     -2.83686678	      0.33223551	     -9.08360848	     14.13590900	     -8.57946569	     26.15039160	    113.43208793	     82.83221515	     12.72168049	     -5.62293023	     20.96866227	    107.17816770	     60.67570644
